<?xml version="1.0" standalone="no"?>
<!DOCTYPE svg PUBLIC "-//W3C//DTD SVG 20010904//EN"
 "http://www.w3.org/TR/2001/REC-SVG-20010904/DTD/svg10.dtd">
<svg version="1.0" xmlns="http://www.w3.org/2000/svg"
 width="317.000000pt" height="289.000000pt" viewBox="0 0 317.000000 289.000000"
 preserveAspectRatio="xMidYMid meet">
<metadata>
Created by potrace 1.16, written by Peter Selinger 2001-2019
</metadata>
<g transform="translate(0.000000,289.000000) scale(0.100000,-0.100000)"
fill="#000000" stroke="none">
<path d="M1520 2825 c0 -3 13 -34 30 -70 16 -36 29 -69 28 -73 -1 -4 2 -17 6
-30 6 -19 -4 -37 -66 -110 -106 -125 -118 -144 -118 -189 0 -31 8 -49 36 -81
19 -23 42 -42 50 -42 28 0 13 -15 -35 -38 -27 -12 -53 -22 -58 -22 -5 0 -14
24 -20 53 -6 28 -23 85 -38 126 l-27 74 21 66 c27 90 33 119 37 171 1 25 3 50
3 55 1 6 5 4 10 -4 7 -10 10 -10 16 -1 5 8 1 16 -8 22 -9 4 -22 15 -30 23 -21
20 -26 10 -17 -32 11 -48 4 -106 -19 -167 -24 -62 -50 -176 -41 -176 4 0 5
-11 2 -25 -2 -14 4 -39 17 -60 18 -31 19 -39 8 -73 -10 -32 -17 -37 -47 -40
-19 -2 -38 -9 -42 -15 -4 -6 -21 5 -45 29 -21 22 -51 49 -66 59 -15 10 -37 39
-48 65 -20 46 -69 105 -69 83 0 -6 6 -16 14 -22 8 -7 24 -30 35 -51 16 -31 17
-39 6 -44 -21 -8 -57 49 -63 100 -2 24 -9 41 -14 38 -21 -13 17 -118 59 -160
11 -11 12 -18 4 -28 -6 -7 -10 -22 -10 -32 4 -40 -2 -52 -28 -59 -16 -3 -35
-12 -43 -19 -41 -35 -110 -39 -185 -10 -12 5 -16 4 -11 -4 4 -6 25 -16 48 -23
31 -8 38 -13 27 -20 -23 -15 -53 -10 -104 16 -27 13 -51 22 -53 20 -7 -7 62
-45 81 -45 9 0 17 -4 17 -8 0 -13 -153 -33 -250 -33 -48 0 -128 8 -184 20 -91
19 -119 21 -104 5 8 -7 140 -43 196 -53 23 -4 87 -6 141 -4 80 4 99 2 104 -10
6 -15 2 -15 -235 -3 -39 2 -65 -1 -62 -6 3 -5 0 -16 -8 -25 -12 -15 -9 -16 32
-11 25 3 52 9 61 12 12 5 15 1 15 -16 -1 -19 6 -24 34 -29 34 -6 34 -6 5 -8
-31 -1 -133 14 -166 24 -16 5 -19 1 -19 -28 0 -38 -15 -47 -78 -47 -20 0 -31
-4 -27 -10 3 -5 25 -10 49 -10 47 0 66 -13 66 -47 0 -28 18 -38 98 -54 59 -12
63 -15 59 -37 -3 -16 2 -28 18 -38 18 -11 24 -31 34 -99 7 -47 17 -85 22 -85
5 0 8 -27 7 -60 l-2 -60 -70 -21 c-49 -15 -82 -19 -111 -14 -22 3 -60 9 -85
12 -57 6 -79 22 -82 57 -1 15 -8 32 -14 37 -8 7 -13 -5 -16 -43 -3 -32 -12
-56 -22 -63 -13 -10 -14 -18 -7 -38 8 -20 7 -27 -6 -31 -14 -6 -14 -8 3 -21
18 -13 18 -14 2 -20 -21 -8 -24 -31 -5 -38 8 -3 6 -7 -7 -12 -13 -6 -21 -3
-28 8 -5 10 -15 14 -26 10 -28 -10 -32 -25 -16 -61 8 -19 14 -42 14 -51 -1 -9
-7 -1 -15 17 -15 34 -21 37 -45 22 -12 -8 -15 -38 -15 -167 0 -174 17 -249 62
-278 21 -14 23 -14 33 26 15 53 10 75 -15 70 -53 -11 -60 -7 -63 32 l-3 37 44
0 44 0 6 -45 c4 -24 4 -88 2 -142 -3 -54 -1 -87 3 -73 5 14 18 27 32 30 23 5
25 11 25 60 0 49 2 55 20 52 28 -5 28 -6 28 -57 0 -24 4 -42 7 -40 7 5 1 -86
-6 -94 -2 -2 -7 10 -10 27 -6 28 -10 32 -40 32 -38 0 -56 -19 -26 -27 15 -3
23 -16 27 -44 6 -34 8 -37 22 -24 20 20 26 19 20 -4 -5 -21 28 -37 39 -20 3 5
27 7 53 3 45 -6 47 -5 63 27 9 19 20 47 23 64 6 27 8 28 19 12 9 -11 26 -17
50 -17 20 0 36 -2 36 -5 0 -13 -71 -75 -85 -75 -9 0 -13 -5 -10 -10 5 -8 -39
-16 -68 -11 -4 0 -7 -14 -7 -31 0 -23 9 -41 27 -58 24 -23 34 -25 117 -26 50
0 100 -3 111 -7 11 -3 26 -6 34 -6 7 -1 11 -7 8 -15 -3 -8 -9 -31 -13 -50 -5
-29 -3 -36 10 -36 25 0 19 -29 -8 -36 -22 -5 -23 -10 -19 -47 7 -52 21 -71 30
-38 8 31 23 7 23 -38 l0 -33 43 6 c23 3 123 15 222 26 99 12 186 23 193 25 13
5 16 52 6 79 -3 9 -15 16 -25 16 -10 0 -19 6 -19 13 0 35 -23 44 -98 38 -79
-7 -78 -7 -84 54 -1 19 6 43 20 62 12 17 22 39 22 50 0 14 2 15 9 4 7 -10 13
-11 31 -1 19 10 21 17 15 56 -5 35 -3 44 8 44 8 0 17 -7 21 -15 3 -10 16 -14
38 -13 30 3 33 1 38 -32 5 -33 7 -35 40 -33 55 4 144 14 157 18 7 2 15 0 19
-6 7 -12 112 -2 130 12 6 5 24 5 41 -2 17 -5 55 -9 84 -7 l54 3 3 216 c2 200
1 217 -15 223 -10 3 -34 15 -53 26 -22 13 -53 20 -84 20 l-49 0 6 35 c7 40 43
122 78 174 19 27 20 33 7 29 -18 -7 -33 6 -41 37 -3 14 -5 10 -6 -11 -1 -28
-5 -32 -37 -37 -69 -11 -113 56 -114 172 0 43 1 44 19 27 12 -11 32 -17 53
-15 18 2 40 -1 47 -5 10 -7 12 -5 6 3 -5 9 2 12 28 10 20 -2 39 -1 42 3 3 3
15 4 26 1 13 -4 19 -14 19 -33 0 -15 6 -40 14 -55 l15 -28 10 41 c6 22 17 45
25 51 11 10 14 38 11 134 -2 67 -4 190 -4 272 l-1 150 -53 1 c-95 3 -106 5
-109 27 -2 14 -14 24 -34 29 -17 4 -37 15 -44 23 -23 28 -49 18 -56 -22 -4
-21 -10 -43 -15 -48 -13 -17 -8 -78 8 -96 29 -34 12 -162 -19 -143 -5 3 -16
-12 -25 -34 -13 -34 -21 -41 -50 -47 -54 -10 -108 -51 -136 -104 l-27 -48 27
-12 c22 -10 24 -14 12 -22 -9 -6 -18 -4 -26 7 -7 9 -33 19 -58 22 -35 4 -45 8
-43 21 2 9 -7 27 -19 41 -62 68 -94 110 -83 110 9 0 11 18 5 75 -5 62 -4 76 8
81 9 3 24 -3 35 -14 15 -15 27 -18 57 -13 32 5 40 11 46 35 4 15 15 33 25 40
13 10 16 23 11 64 -3 29 -1 54 4 57 5 4 9 18 9 32 0 23 -3 25 -30 20 -26 -6
-29 -4 -27 16 2 20 -2 22 -41 19 -23 -2 -48 1 -55 7 -9 7 -28 3 -67 -16 -47
-23 -69 -27 -155 -28 -64 -1 -75 0 -30 2 67 4 69 5 40 17 -29 12 -26 13 47 19
91 6 158 34 235 95 49 39 82 55 68 32 -6 -9 12 -14 45 -12 8 0 19 -6 23 -14 4
-8 15 -14 23 -14 8 0 12 -4 9 -10 -3 -5 11 -17 32 -26 21 -9 46 -20 55 -25 23
-12 31 -11 23 1 -3 6 -1 10 4 10 6 0 11 -6 11 -14 0 -16 55 -27 69 -13 6 6 16
4 26 -7 18 -17 50 -22 40 -6 -8 13 85 1 103 -13 7 -5 15 -7 19 -3 3 3 2 6 -4
6 -5 0 -10 7 -10 15 0 8 4 15 9 15 4 0 8 -4 8 -9 0 -5 11 -11 25 -13 13 -3 22
-1 19 3 -3 5 -13 10 -22 10 -9 1 -3 4 13 8 41 9 47 47 10 61 -32 12 -38 12
-31 2 2 -4 -11 -6 -31 -4 -27 3 -34 1 -31 -9 8 -21 -11 -49 -32 -49 -11 0 -20
4 -20 9 0 12 26 32 33 25 3 -3 3 3 1 13 -3 10 -13 19 -22 20 -63 7 -83 16 -80
37 3 24 32 26 103 8 22 -6 61 -12 86 -15 l47 -6 5 36 c4 20 4 56 0 80 -6 43
-7 44 -35 37 -24 -5 -33 -1 -45 16 -8 12 -26 25 -39 30 -13 5 -28 20 -33 32
-5 13 -17 42 -26 66 -17 40 -17 43 0 62 10 11 22 17 28 13 5 -3 7 -2 4 4 -4 6
25 42 64 81 40 41 68 76 64 82 -11 18 -13 74 -3 87 6 8 2 15 -12 23 -12 6 -19
18 -16 25 3 8 0 15 -6 17 -6 2 -11 14 -12 27 -1 15 -10 27 -23 32 -13 5 -23 6
-23 4z m-727 -1411 c3 -3 1 -17 -4 -31 -13 -36 0 -118 25 -156 27 -40 65 -60
83 -45 16 13 19 11 26 -28 l6 -30 -75 -13 c-91 -15 -109 -8 -26 11 59 13 59
13 39 33 -11 11 -16 14 -12 6 7 -12 0 -13 -36 -7 -24 4 -47 10 -52 15 -10 10
-36 106 -44 158 -4 31 -1 50 11 68 15 23 45 33 59 19z m-151 -373 c2 -28 -1
-34 -17 -36 -90 -9 -145 -27 -145 -49 0 -8 -12 -16 -26 -19 -18 -3 -24 -1 -20
9 3 7 1 16 -4 19 -14 9 -4 40 15 43 10 2 22 -2 27 -10 6 -9 8 -6 7 12 -5 59
-3 60 62 60 52 0 62 -3 66 -20 9 -35 22 -22 17 18 -4 26 -2 33 4 22 6 -8 12
-30 14 -49z"/>
<path d="M2186 2574 c-9 -30 -27 -64 -39 -77 -26 -28 -110 -77 -130 -77 -22 0
-68 -40 -60 -53 4 -6 0 -8 -10 -4 -11 4 -17 1 -17 -8 0 -9 -9 -15 -22 -15 -13
0 -38 -9 -55 -20 -26 -15 -33 -26 -33 -51 0 -31 -1 -31 -39 -25 l-39 6 -1 -76
c-1 -97 8 -114 59 -114 22 0 40 -5 40 -11 0 -7 -11 -8 -30 -4 -19 4 -30 3 -30
-4 0 -6 -3 -10 -7 -10 -24 4 -33 -4 -33 -25 0 -32 14 -40 33 -21 17 17 31 20
22 6 -9 -16 35 -24 52 -9 14 11 16 11 9 0 -7 -12 -4 -12 15 -1 30 16 72 24 49
9 -12 -8 -11 -10 7 -10 12 0 25 5 29 12 4 7 3 8 -4 4 -7 -4 -12 -2 -12 3 0 14
27 14 35 1 10 -16 101 -6 97 10 -3 11 0 11 12 0 11 -8 30 -10 56 -6 32 5 40 3
40 -9 0 -10 5 -13 12 -9 6 4 23 8 37 10 104 11 114 14 150 46 28 25 37 40 37
62 -1 23 7 35 32 52 18 13 38 25 45 27 9 3 7 12 -5 33 -21 36 -33 37 -403 35
-55 -1 -109 0 -120 2 -14 1 -20 -3 -19 -15 2 -21 3 -21 -31 -8 -21 8 -26 7
-22 -2 3 -9 30 -13 98 -11 64 1 84 -1 61 -7 -18 -4 -81 -7 -140 -7 -59 0 -88
2 -65 4 33 3 41 8 36 19 -4 10 7 27 28 47 19 17 33 34 31 39 -1 5 11 11 28 14
16 4 30 10 30 14 0 4 11 11 26 14 31 8 99 56 123 88 15 20 91 170 91 180 0 2
-8 4 -18 5 -14 1 -23 -12 -36 -53z"/>
<path d="M1868 1903 c6 -2 12 -13 12 -22 0 -15 -11 -19 -70 -23 -39 -3 -73 -8
-76 -11 -3 -2 -6 -55 -7 -117 l-2 -112 28 -22 c22 -16 44 -21 98 -22 39 -1 73
-4 76 -8 3 -3 1 -24 -6 -46 -11 -39 -13 -39 -35 -25 -22 15 -23 14 -40 -43
-10 -31 -27 -72 -39 -91 l-20 -33 24 7 c37 12 100 50 147 91 59 50 85 105 106
223 l6 34 -65 -6 c-47 -5 -65 -3 -66 6 -1 7 -3 22 -4 34 -1 13 -8 29 -14 37
-7 8 -9 20 -5 27 11 19 14 88 4 94 -16 10 -11 28 5 21 8 -3 15 -1 15 4 0 6
-19 10 -42 9 -24 0 -37 -3 -30 -6z"/>
<path d="M2393 1715 c-10 -8 -42 -15 -73 -15 -76 0 -164 -12 -151 -19 15 -10
-13 -131 -44 -195 -43 -88 -113 -152 -224 -204 -53 -25 -98 -46 -100 -48 -8
-7 96 -103 152 -139 l57 -38 120 11 c66 6 125 14 130 17 6 4 -9 29 -34 57 -69
78 -131 210 -93 195 11 -4 14 1 11 16 -2 12 1 6 7 -13 22 -72 100 -210 119
-210 15 0 20 32 16 96 -3 60 -13 89 -51 149 l-19 30 27 -24 c30 -27 37 -19 10
12 -17 19 -17 20 4 9 76 -40 104 -168 59 -264 -19 -38 -14 -63 10 -54 7 3 16
1 19 -3 8 -14 9 -270 1 -279 -9 -9 -327 -42 -338 -36 -5 3 -8 48 -8 100 0 81
-2 94 -17 94 -33 0 -140 70 -206 136 l-68 67 5 -104 c3 -57 8 -187 11 -289 3
-102 8 -216 10 -255 2 -38 7 -125 11 -192 6 -118 7 -123 28 -118 46 11 428 56
439 52 7 -2 -28 -9 -78 -16 -49 -6 -155 -20 -235 -31 -80 -11 -146 -20 -147
-20 -2 0 -3 -13 -3 -30 0 -27 3 -29 28 -25 60 11 387 54 637 86 44 5 162 21
263 34 100 14 187 25 192 25 20 0 10 66 -12 86 -56 49 -123 71 -156 50 -7 -4
-12 -3 -12 1 0 5 -14 17 -30 27 -17 9 -39 27 -50 38 -13 15 -27 19 -49 16 -21
-3 -31 0 -31 9 0 7 12 14 28 14 15 1 37 3 48 4 39 4 148 16 193 21 65 8 163
56 208 102 58 60 124 210 139 317 3 22 8 47 11 55 9 27 2 180 -13 263 -38 217
-109 336 -234 393 -37 17 -161 20 -287 8 -53 -5 -68 -3 -99 15 -46 27 -106 34
-131 16z"/>
<path d="M1581 362 c-5 -2 -7 -21 -5 -43 4 -45 3 -45 -76 -53 -82 -8 -132 -16
-141 -22 -5 -3 -9 -19 -9 -35 0 -29 2 -30 36 -27 42 3 64 -19 64 -65 0 -22 4
-27 18 -23 9 3 40 8 67 11 100 12 105 15 105 42 l0 26 -72 -7 c-40 -4 -84 -10
-97 -13 -15 -4 -22 -2 -18 4 4 6 39 13 79 17 114 11 108 4 107 104 -1 85 -1
87 -25 87 -13 0 -28 -1 -33 -3z"/>
</g>
</svg>
